HIERARCHY
ROOT Hips
{
	OFFSET 0.00000 0.00000 0.00000
	CHANNELS 6 Xposition Yposition Zposition Zrotation Yrotation Xrotation 
	JOINT LHipJoint
	{
		OFFSET 0 0 0
		CHANNELS 3 Zrotation Yrotation Xrotation
		JOINT LeftHip
		{
			OFFSET 1.85742 -1.74412 1.01653
			CHANNELS 3 Zrotation Yrotation Xrotation
			JOINT LeftKnee
			{
				OFFSET 2.54803 -7.00067 0.00000
				CHANNELS 3 Zrotation Yrotation Xrotation
				JOINT LeftAnkle
				{
					OFFSET 2.51202 -6.90173 0.00000
					CHANNELS 3 Zrotation Yrotation Xrotation
					JOINT LeftToe
					{
						OFFSET 0.17547 -0.48209 1.64281
						CHANNELS 3 Zrotation Yrotation Xrotation
						End Site
						{
							OFFSET 0.00000 -0.00000 0.86587
						}
					}
				}
			}
		}
	}
	JOINT RHipJoint
	{
		OFFSET 0 0 0
		CHANNELS 3 Zrotation Yrotation Xrotation
		JOINT RightHip
		{
			OFFSET -1.95533 -1.74413 1.01654
			CHANNELS 3 Zrotation Yrotation Xrotation
			JOINT RightKnee
			{
				OFFSET -2.49465 -6.85400 0.00000
				CHANNELS 3 Zrotation Yrotation Xrotation
				JOINT RightAnkle
				{
					OFFSET -2.54783 -7.00010 0.00000
					CHANNELS 3 Zrotation Yrotation Xrotation
					JOINT RightToe
					{
						OFFSET -0.18513 -0.50864 1.69288
						CHANNELS 3 Zrotation Yrotation Xrotation
						End Site
						{
							OFFSET -0.00000 -0.00000 0.89242
						}
					}
				}
			}
		}
	}
	JOINT lowerback
	{
		OFFSET 0 0 0
		CHANNELS 3 Zrotation Yrotation Xrotation
		JOINT Chest
		{
			OFFSET 0.02173 2.16290 -0.15998
			CHANNELS 3 Zrotation Yrotation Xrotation
			JOINT Chest2
			{
				OFFSET 0.00940 2.17323 -0.00467
				CHANNELS 3 Zrotation Yrotation Xrotation
				JOINT lowerneck
				{
					OFFSET 0 0 0
					CHANNELS 3 Zrotation Yrotation Xrotation
					JOINT Neck
					{
						OFFSET 0.01475 1.85823 0.31113
						CHANNELS 3 Zrotation Yrotation Xrotation
						JOINT Head
						{
							OFFSET 0.01902 1.88783 -0.37187
							CHANNELS 3 Zrotation Yrotation Xrotation
							End Site
							{
								OFFSET 0.00489 1.93211 -0.16169
							}
						}
					}
				}
				JOINT LeftCollar
				{
					OFFSET 0 0 0
					CHANNELS 3 Zrotation Yrotation Xrotation
					JOINT LeftShoulder
					{
						OFFSET 3.34199 1.32384 -0.07862
CHANNELS 3 Zrotation Xrotation Yrotation
						JOINT LeftElbow
						{
OFFSET 0 -5.279500 0.000000
CHANNELS 3 Zrotation Xrotation Yrotation
							JOINT LeftWrist
							{
OFFSET 0 -3.535040 0.000000
CHANNELS 3 Zrotation Xrotation Yrotation
								JOINT lhand
								{
									OFFSET 0 0 0
CHANNELS 3 Zrotation Xrotation Yrotation
									JOINT LFingers
									{
OFFSET 0 -0.667950 0.000000
CHANNELS 3 Zrotation Xrotation Yrotation
										End Site
										{
OFFSET 0 -0.538520 0.000000
										}
									}
								}
								JOINT LThumb
								{
OFFSET 0 0.000000 0.000000
CHANNELS 3 Zrotation Xrotation Yrotation
									End Site
									{
OFFSET 0 -0.546740 0.546740
									}
								}
							}
						}
					}
				}
				JOINT RightCollar
				{
					OFFSET 0 0 0
					CHANNELS 3 Zrotation Yrotation Xrotation
					JOINT RightShoulder
					{
						OFFSET -3.16149 1.45719 -0.50507
CHANNELS 3 Zrotation Xrotation Yrotation
						JOINT RightElbow
						{
OFFSET 0 -5.250350 0.000000
CHANNELS 3 Zrotation Xrotation Yrotation
							JOINT RightWrist
							{
OFFSET 0 -3.588840 0.000000
CHANNELS 3 Zrotation Xrotation Yrotation
								JOINT rhand
								{
									OFFSET 0 0 0
CHANNELS 3 Zrotation Xrotation Yrotation
									JOINT RFingers
									{
OFFSET 0 -0.779240 0.000000
CHANNELS 3 Zrotation Xrotation Yrotation
										End Site
										{
OFFSET 0 -0.628240 0.000000
										}
									}
								}
								JOINT RThumb
								{
OFFSET 0 0.000000 0.000000
CHANNELS 3 Zrotation Xrotation Yrotation
									End Site
									{
OFFSET 0 -0.637830 0.637830
									}
								}
							}
						}
					}
				}
			}
		}
	}
}
MOTION
Frames: 12
Frame Time: 0.008333333333333333
3.953477 17.761007 -11.952251 -9.340699 -11.098945 40.547137 0.000000 0.000000 0.000000 10.819750 -4.223005 -56.462715 4.208838 12.433224 37.282266 0.872293 -0.387658 -17.528030 10.098035 -17.464595 -59.815508 0.000000 0.000000 0.000000 27.045781 11.730976 -60.713722 -2.998581 -10.692746 31.250561 0.076117 13.221658 -8.284939 -8.944348 16.771756 -55.897331 -2.232172 -4.416314 39.745624 -4.809221 -6.749230 11.816497 -1.336761 -3.089423 -6.401477 -5.956852 -2.233458 -22.796960 -1.362678 -0.439919 30.174880 0.377225 -1.097729 14.203824 0.000000 0.000000 0.000000 121.815330 -41.480810 -4.564213 144.755138 -44.983188 105.012750 144.311885 -235.414644 55.436579 0.000000 0.000000 0.000000 -7.125000 0.000000 0.000000 170.385894 58.919816 3.303329 0.000000 0.000000 0.000000 -38.818315 -8.157477 43.757409 -147.842049 -42.672743 -107.152237 -51.746723 -13.893823 -15.239269 0.000000 0.000000 0.000000 7.125000 0.000000 0.000000 -15.391717 6.916784 -13.952694
3.951481 17.759763 -11.943635 -9.254053 -11.224471 40.424137 0.000000 0.000000 0.000000 10.546926 -4.052309 -56.425459 4.231563 12.462308 37.387674 0.864075 -0.529062 -17.398570 10.113536 -17.473227 -59.867098 0.000000 0.000000 0.000000 26.961760 11.655026 -60.665678 -3.024107 -10.733967 31.387711 0.072398 13.285472 -8.384681 -8.973365 16.790497 -55.997831 -2.290697 -4.521430 39.750015 -4.752740 -6.892409 11.762937 -1.189832 -3.156575 -6.450960 -5.253508 -1.869963 -23.104375 -1.962251 0.028180 30.261610 0.098575 -0.910987 14.293309 0.000000 0.000000 0.000000 124.168045 -39.961285 -2.556226 143.546548 -45.822358 104.153080 139.864778 -233.273362 54.441108 0.000000 0.000000 0.000000 -7.125000 0.000000 0.000000 174.034236 58.498076 1.986640 0.000000 0.000000 0.000000 -38.502587 -8.746581 44.224209 -147.928440 -42.604173 -107.210802 -50.671508 -13.282903 -15.388434 0.000000 0.000000 0.000000 7.125000 0.000000 0.000000 -14.718047 7.127863 -13.233752
3.950474 17.757530 -11.943687 -9.157872 -11.430639 40.353384 0.000000 0.000000 0.000000 10.366174 -4.023307 -56.356515 4.245761 12.480448 37.453320 0.863963 -0.539340 -17.394537 10.050635 -17.438188 -59.657321 0.000000 0.000000 0.000000 26.762261 11.710782 -60.658005 -3.048878 -10.773782 31.520646 0.065550 13.318706 -8.501802 -9.001502 16.808665 -56.095449 -2.167742 -4.313593 39.550106 -4.448234 -6.574201 11.645857 -1.058183 -3.019673 -6.483532 -5.473685 -1.979589 -22.990021 -2.001034 -0.034199 30.339997 0.108865 -0.968487 14.307935 0.000000 0.000000 0.000000 126.308877 -39.868087 -0.619325 142.034789 -46.816946 103.059731 135.196961 -231.560662 53.410345 0.000000 0.000000 0.000000 -7.125000 0.000000 0.000000 177.789309 57.743820 0.689894 0.000000 0.000000 0.000000 -38.621255 -8.593968 44.254282 -148.080766 -42.482661 -107.313738 -50.479182 -11.875126 -14.640926 0.000000 0.000000 0.000000 7.125000 0.000000 0.000000 -14.789311 8.246873 -12.966243
3.947416 17.758062 -11.955205 -9.047702 -11.531974 40.325010 0.000000 0.000000 0.000000 10.155455 -3.968846 -56.394436 4.236542 12.468689 37.410823 0.860230 -0.323066 -17.425961 10.186883 -17.513616 -60.111235 0.000000 0.000000 0.000000 26.434652 11.933883 -60.655846 -3.061607 -10.794199 31.588860 0.051180 13.083387 -8.513643 -8.983928 16.797406 -56.034567 -2.071263 -4.235953 39.316351 -4.213035 -6.419919 11.603188 -0.927841 -2.957583 -6.433257 -5.149621 -1.891138 -23.476934 -2.428242 0.156990 30.606809 -0.091399 -0.921180 14.529798 0.000000 0.000000 0.000000 127.696851 -39.545496 0.962305 140.612149 -47.701659 102.014453 134.229364 -231.913441 53.155986 0.000000 0.000000 0.000000 -7.125000 0.000000 0.000000 178.575568 57.568034 0.438825 0.000000 0.000000 0.000000 -38.891197 -8.750209 44.245619 -148.433546 -42.198614 -107.551353 -49.387212 -10.216935 -13.483399 0.000000 0.000000 0.000000 7.125000 0.000000 0.000000 -14.409103 10.242424 -12.015966
3.950700 17.761168 -11.972876 -8.943573 -11.538834 40.276165 0.000000 0.000000 0.000000 10.164629 -4.126899 -56.316940 4.215114 12.441297 37.311471 0.870937 -0.439343 -17.497223 10.052552 -17.439315 -59.663890 0.000000 0.000000 0.000000 26.224800 12.020451 -60.656138 -3.060102 -10.791744 31.580673 0.041259 12.920143 -8.523174 -9.012300 16.815615 -56.132565 -1.943293 -4.144393 39.164726 -3.910230 -6.237143 11.450811 -0.744245 -2.879303 -6.525295 -5.103688 -1.782761 -23.501854 -2.425400 0.291341 30.604877 -0.072798 -0.859887 14.531775 0.000000 0.000000 0.000000 128.754489 -39.602768 2.195972 138.727159 -48.804645 100.607864 135.011291 -233.078789 52.667507 0.000000 0.000000 0.000000 -7.125000 0.000000 0.000000 178.458158 58.312377 0.507283 0.000000 0.000000 0.000000 -39.312356 -8.851837 44.163081 -148.711520 -41.972462 -107.737684 -48.051893 -9.302770 -12.824967 0.000000 0.000000 0.000000 7.125000 0.000000 0.000000 -13.739999 11.573405 -11.034174
3.957172 17.767766 -11.999599 -8.790823 -11.547236 40.080545 0.000000 0.000000 0.000000 10.040910 -4.336851 -56.162008 4.189057 12.407789 37.190280 0.867448 -0.250980 -17.523058 10.113076 -17.472928 -59.865631 0.000000 0.000000 0.000000 25.913823 12.065881 -60.548035 -3.051108 -10.777306 31.532573 0.034873 12.757211 -8.487832 -8.995277 16.804699 -56.073873 -1.955086 -4.167381 39.144238 -3.757545 -6.254040 11.386316 -0.569656 -2.890110 -6.569977 -4.697731 -1.528876 -23.955781 -2.560725 0.575379 30.847895 -0.150025 -0.724299 14.734163 0.000000 0.000000 0.000000 129.496680 -39.159674 2.859836 137.209412 -49.637829 99.458644 134.634706 -232.267863 52.662780 0.000000 0.000000 0.000000 -7.125000 0.000000 0.000000 178.696502 58.156894 0.426970 0.000000 0.000000 0.000000 -39.563407 -9.410619 44.275619 -148.524335 -42.125082 -107.612256 -47.806417 -8.946031 -12.879253 0.000000 0.000000 0.000000 7.125000 0.000000 0.000000 -13.574168 11.570753 -10.893573
3.960498 17.770014 -12.041771 -8.721825 -11.494538 39.932592 0.000000 0.000000 0.000000 10.027816 -4.431424 -56.146858 4.171505 12.385177 37.108535 0.851746 -0.147539 -17.397072 10.164088 -17.501079 -60.035446 0.000000 0.000000 0.000000 25.820837 12.084194 -60.513179 -3.034692 -10.751010 31.444646 0.042907 12.676416 -8.318275 -8.941159 16.769711 -55.886385 -1.864288 -4.110998 39.084505 -3.607941 -6.141127 11.299856 -0.500349 -2.840004 -6.635918 -4.179730 -1.318451 -24.277367 -2.805461 0.776313 31.009882 -0.304978 -0.621689 14.875734 0.000000 0.000000 0.000000 130.506424 -39.373634 3.381250 135.344461 -50.597796 98.027494 131.114866 -229.613134 52.401261 0.000000 0.000000 0.000000 -7.125000 0.000000 0.000000 -179.000876 56.832618 -0.289291 0.000000 0.000000 0.000000 -39.808534 -9.758174 43.994298 -148.297689 -42.308506 -107.459988 -47.628616 -8.782961 -12.778258 0.000000 0.000000 0.000000 7.125000 0.000000 0.000000 -13.486070 11.760838 -10.764051
3.962076 17.773485 -12.094630 -8.648547 -11.509332 39.671258 0.000000 0.000000 0.000000 9.867795 -4.337893 -56.074740 4.152521 12.360651 37.020185 0.832076 -0.102976 -17.209237 10.287619 -17.568429 -60.445536 0.000000 0.000000 0.000000 25.799139 12.010220 -60.394608 -3.022680 -10.731667 31.380296 0.055008 12.692113 -8.162750 -8.915586 16.753078 -55.797631 -1.932457 -3.876474 39.057790 -3.411908 -5.871108 11.183002 -0.358673 -2.720030 -6.725147 -4.090901 -1.369595 -24.098739 -2.914310 0.693957 31.014754 -0.379592 -0.658924 14.840207 0.000000 0.000000 0.000000 131.399790 -40.209597 3.786020 134.027176 -51.236224 97.005180 130.783733 -229.211103 52.052260 0.000000 0.000000 0.000000 -7.125000 0.000000 0.000000 -178.514455 56.967388 -0.435715 0.000000 0.000000 0.000000 -39.924286 -9.786356 43.520894 -148.081534 -42.482029 -107.314327 -47.534119 -8.096721 -12.194156 0.000000 0.000000 0.000000 7.125000 0.000000 0.000000 -13.559335 12.589756 -10.585194
3.970720 17.771416 -12.146782 -8.549974 -11.430756 39.411776 0.000000 0.000000 0.000000 9.615214 -4.210113 -56.151679 4.132682 12.334925 36.927151 0.785003 0.083364 -16.777705 10.462645 -17.661892 -61.023598 0.000000 0.000000 0.000000 25.776908 11.867127 -60.386675 -3.026815 -10.738328 31.402361 0.059450 12.633270 -8.055853 -8.929547 16.762162 -55.846156 -1.921612 -3.703074 38.956783 -3.195657 -5.635640 11.179999 -0.231113 -2.619302 -6.671186 -3.929422 -1.495383 -24.188682 -3.244959 0.573664 31.018543 -0.567901 -0.736304 14.865821 0.000000 0.000000 0.000000 131.135412 -40.785334 3.708900 134.076522 -51.212367 97.043520 131.179364 -227.454041 52.207565 0.000000 0.000000 0.000000 -7.125000 0.000000 0.000000 -178.872426 57.019983 -0.329843 0.000000 0.000000 0.000000 -40.041070 -10.050836 42.521079 -147.883400 -42.639946 -107.180263 -47.801434 -7.277070 -11.414905 0.000000 0.000000 0.000000 7.125000 0.000000 0.000000 -13.905719 13.592963 -10.570529
3.974040 17.768535 -12.203899 -8.491209 -11.307953 39.095314 0.000000 0.000000 0.000000 9.588254 -4.247513 -56.068869 4.119418 12.317639 36.865174 0.767595 0.048326 -16.577908 10.537137 -17.701058 -61.269075 0.000000 0.000000 0.000000 25.703732 11.848743 -60.301713 -3.046631 -10.770149 31.508429 0.045433 12.344279 -8.031681 -8.966777 16.786310 -55.975210 -1.915097 -3.601723 38.946994 -3.127508 -5.505103 11.171010 -0.212433 -2.560971 -6.670722 -3.814652 -1.657462 -24.024710 -3.184211 0.261115 30.927337 -0.619025 -0.839011 14.786207 0.000000 0.000000 0.000000 130.006591 -41.335496 3.639008 134.523372 -50.999841 97.391366 129.817503 -225.750761 51.615284 0.000000 0.000000 0.000000 -7.125000 0.000000 0.000000 -177.601058 56.851177 -0.695706 0.000000 0.000000 0.000000 -39.903376 -10.239654 41.948547 -147.799403 -42.706539 -107.123317 -47.153111 -8.053292 -11.651188 0.000000 0.000000 0.000000 7.125000 0.000000 0.000000 -13.439886 13.437712 -10.240416
3.980282 17.763225 -12.264076 -8.273918 -11.047588 38.705179 0.000000 0.000000 0.000000 9.492324 -4.474655 -56.022994 4.110097 12.305499 36.821346 0.739611 -0.034441 -16.243774 10.531021 -17.697834 -61.248900 0.000000 0.000000 0.000000 25.518127 11.666503 -60.304280 -3.077529 -10.819542 31.673625 0.027958 12.025422 -8.042689 -8.994582 16.804253 -56.071326 -1.947683 -3.547732 39.066337 -3.099660 -5.448459 11.159733 -0.183385 -2.532473 -6.715482 -3.728841 -1.801606 -24.019582 -2.805751 -0.109179 31.062789 -0.550623 -0.929753 14.841535 0.000000 0.000000 0.000000 128.338761 -42.207424 3.532070 133.423456 -51.516039 96.533026 131.746480 -226.464072 52.114770 0.000000 0.000000 0.000000 -7.125000 0.000000 0.000000 69.700620 57.341023 -0.261052 0.000000 0.000000 0.000000 -39.806554 -10.318528 41.619399 -147.726966 -42.763772 -107.074204 -46.883198 -8.550453 -11.611486 0.000000 0.000000 0.000000 7.125000 0.000000 0.000000 -13.276538 13.562052 -10.072813
3.986499 17.762520 -12.322176 -8.188998 -10.656913 38.335729 0.000000 0.000000 0.000000 9.530901 -4.638975 -56.001433 4.101391 12.294201 36.780723 0.714732 -0.100503 -15.944961 10.592394 -17.729817 -61.450679 0.000000 0.000000 0.000000 25.544025 11.472727 -60.244639 -3.096679 -10.849929 31.775536 0.006861 11.660493 -8.081193 -9.034602 16.829931 -56.209618 -1.917845 -3.588358 39.237350 -3.038997 -5.478780 11.153603 -0.116816 -2.544040 -6.772760 -3.507699 -1.803083 -24.121663 -2.739854 -0.213215 31.309408 -0.586537 -0.942161 14.973085 0.000000 0.000000 0.000000 126.146853 -43.063073 3.609342 132.725173 -51.835489 95.985732 135.331181 -227.611515 53.585958 0.000000 0.000000 0.000000 -7.125000 0.000000 0.000000 177.575279 57.644966 0.750754 0.000000 0.000000 0.000000 -39.897747 -10.795647 41.333108 -147.481877 -42.956327 -106.907432 -46.681604 -9.640458 -11.750192 0.000000 0.000000 0.000000 7.125000 0.000000 0.000000 -13.117223 13.424711 -9.984124
